<?xml version="1.0" encoding="UTF-8" standalone="no"?>
<!-- Created with Inkscape (http://www.inkscape.org/) -->

<svg
   xmlns:dc="http://purl.org/dc/elements/1.1/"
   xmlns:cc="http://creativecommons.org/ns#"
   xmlns:rdf="http://www.w3.org/1999/02/22-rdf-syntax-ns#"
   xmlns:svg="http://www.w3.org/2000/svg"
   xmlns="http://www.w3.org/2000/svg"
   xmlns:sodipodi="http://sodipodi.sourceforge.net/DTD/sodipodi-0.dtd"
   xmlns:inkscape="http://www.inkscape.org/namespaces/inkscape"
   width="48px"
   height="48px"
   viewBox="0 0 48 48"
   version="1.1"
   id="SVGRoot"
   inkscape:version="0.92.3 (2405546, 2018-03-11)"
   sodipodi:docname="logo.svg">
  <sodipodi:namedview
     id="base"
     pagecolor="#ffffff"
     bordercolor="#666666"
     borderopacity="1.0"
     inkscape:pageopacity="0.0"
     inkscape:pageshadow="2"
     inkscape:zoom="128"
     inkscape:cx="39.984375"
     inkscape:cy="20.959375"
     inkscape:document-units="px"
     inkscape:current-layer="layer2"
     showgrid="false"
     inkscape:window-width="1366"
     inkscape:window-height="705"
     inkscape:window-x="-8"
     inkscape:window-y="-8"
     inkscape:window-maximized="1"
     inkscape:grid-bbox="true"
     inkscape:pagecheckerboard="true"
     showguides="true"
     inkscape:guide-bbox="true">
    <sodipodi:guide
       position="3.9375,10.5625"
       orientation="1,0"
       id="guide3716"
       inkscape:locked="false" />
  </sodipodi:namedview>
  <defs
     id="defs10" />
  <metadata
     id="metadata13">
    <rdf:RDF>
      <cc:Work
         rdf:about="">
        <dc:format>image/svg+xml</dc:format>
        <dc:type
           rdf:resource="http://purl.org/dc/dcmitype/StillImage" />
        <dc:title />
      </cc:Work>
    </rdf:RDF>
  </metadata>
  <g
     id="layer1"
     inkscape:groupmode="layer"
     inkscape:label="Layer 1"
     style="display:inline" />
  <g
     inkscape:groupmode="layer"
     id="layer2"
     inkscape:label="Layer 2"
     style="display:inline">
    <g
       id="g4905"
       transform="matrix(1.3155617,0,0,1.3155617,2.2181377,-11.559884)"
       style="stroke-width:0.7601316">
      <text
         transform="scale(0.89533571,1.1168995)"
         id="text28"
         y="35.757469"
         x="0.96009558"
         style="font-style:normal;font-variant:normal;font-weight:normal;font-stretch:normal;font-size:30.99471855px;line-height:1.25;font-family:Century;-inkscape-font-specification:Century;letter-spacing:0px;word-spacing:0px;display:inline;fill:#000000;fill-opacity:1;stroke:none;stroke-width:0.58900166"
         xml:space="preserve"><tspan
           style="stroke-width:0.58900166;fill:#f9f9f9"
           y="35.757469"
           x="0.96009558"
           id="tspan26"
           sodipodi:role="line">M</tspan></text>
      <path
         inkscape:connector-curvature="0"
         id="path4766"
         d="m 20.623047,9.609375 c -2.526068,0 -4.602848,0.947348 -6.230469,2.84375 -1.6146,1.881231 -2.421875,4.301378 -2.421875,7.259766 0,2.837017 0.813785,5.030661 2.441406,6.578125 0.515299,0.485711 1.243235,0.948861 2.160157,1.392578 l 1.378906,-4.878906 C 17.604711,22.658957 17.301084,22.514815 17.068359,22.375 c -0.820321,-0.515821 -1.438797,-1.174441 -1.855468,-1.978516 -0.416671,-0.819245 -0.625,-1.768546 -0.625,-2.845703 0,-1.729518 0.546863,-3.192099 1.640625,-4.390625 1.093761,-1.198526 2.499982,-1.798828 4.21875,-1.798828 2.057313,0 3.873681,0.864231 5.449218,2.59375 1.588559,1.729519 2.78645,4.47582 3.59375,8.238281 h 1.289063 L 30.662109,9.9277344 h -1.425781 l -1.757812,2.9355466 c -1.171888,-1.168183 -2.304676,-2.003256 -3.398438,-2.503906 -1.093761,-0.5006502 -2.246081,-0.75 -3.457031,-0.75 z"
         style="font-style:normal;font-variant:normal;font-weight:normal;font-stretch:normal;font-size:43.17706299px;line-height:1.25;font-family:Century;-inkscape-font-specification:Century;letter-spacing:0px;word-spacing:0px;fill:#000000;fill-opacity:1;stroke:none;stroke-width:0.7601316" />
      <path
         inkscape:connector-curvature="0"
         id="path4756"
         d="m 20.787109,23.732422 0.0078,5.472656 c 0.05039,0.0141 0.08972,0.02893 0.140625,0.04297 2.903676,0.788903 4.85025,1.464055 5.839844,2.025391 0.989593,0.546161 1.712234,1.229582 2.167968,2.048828 0.455734,0.804074 0.683594,1.745109 0.683594,2.822265 0,1.896402 -0.611966,3.510636 -1.835937,4.845703 -1.210951,1.319896 -2.779928,1.980469 -4.707032,1.980469 -2.382837,0 -4.524719,-1.038731 -6.425781,-3.117187 -1.901062,-2.078457 -3.124994,-4.916141 -3.671875,-8.511719 h -1.40625 V 44.38086 h 1.40625 l 2.207031,-3.138671 c 2.200544,2.245339 4.791636,3.367187 7.773438,3.367187 2.773467,0 5.032534,-0.993039 6.777344,-2.980469 1.757831,-2.0026 2.636718,-4.522397 2.636718,-7.55664 0,-1.699177 -0.319003,-3.178289 -0.957031,-4.4375 -0.638027,-1.274383 -1.608059,-2.327693 -2.910156,-3.16211 -1.289076,-0.834417 -3.541633,-1.661223 -6.757813,-2.480468 -0.350739,-0.08823 -0.65217,-0.17331 -0.96875,-0.259766 z"
         style="font-style:normal;font-variant:normal;font-weight:normal;font-stretch:normal;font-size:43.17706299px;line-height:1.25;font-family:Century;-inkscape-font-specification:Century;letter-spacing:0px;word-spacing:0px;fill:#000000;fill-opacity:1;stroke:none;stroke-width:0.7601316" />
    </g>
    <path
       style="fill:#f9f9f9;stroke-width:0.03125"
       d="m 31.451414,47.082308 c -0.05156,-0.0068 -0.269531,-0.02784 -0.484375,-0.04668 -0.520969,-0.04569 -1.371728,-0.189558 -1.919564,-0.324616 -2.363702,-0.582724 -4.529371,-1.806524 -6.419797,-3.627768 -0.224818,-0.216592 -0.419731,-0.386994 -0.433137,-0.378672 -0.01341,0.0083 -0.671252,0.936956 -1.461877,2.063632 l -1.4375,2.0485 -0.914062,0.0013 -0.914063,0.0013 V 38.256332 29.69336 l 0.912102,0.0083 0.912101,0.0083 0.101591,0.590442 c 0.831666,4.833593 2.603063,8.531697 5.390578,11.253783 1.95963,1.913633 3.985653,2.972581 6.379801,3.334549 0.608061,0.09193 2.14074,0.100383 2.741327,0.01512 1.152908,-0.163682 2.237887,-0.53944 3.153256,-1.092059 0.629734,-0.380178 1.35963,-1.003045 1.884101,-1.607825 1.284413,-1.481087 1.981068,-3.095151 2.216185,-5.134631 0.0574,-0.497887 0.04898,-1.716218 -0.01511,-2.1875 -0.186806,-1.373598 -0.659789,-2.531732 -1.416642,-3.46875 -0.263268,-0.325937 -0.841304,-0.877989 -1.205746,-1.151544 -1.106428,-0.830502 -2.625368,-1.507743 -5.194168,-2.315895 -0.446875,-0.140588 -0.86875,-0.27463 -0.9375,-0.29787 -0.105987,-0.03583 0.739117,-0.04263 5.556118,-0.04472 l 5.681119,-0.0025 0.124352,0.270439 c 0.949029,2.063935 1.267344,4.804501 0.901412,7.760811 -0.375517,3.033744 -1.591423,5.705522 -3.564705,7.832922 -0.965039,1.040412 -1.995185,1.819921 -3.213921,2.431968 -1.181884,0.59354 -2.381016,0.94522 -3.84375,1.127292 -0.396644,0.04937 -2.317791,0.09284 -2.578125,0.05834 z"
       id="path3718"
       inkscape:connector-curvature="0" />
    <path
       style="fill:#f9f9f9;stroke-width:0.08838835"
       d="M 31.517969,27.384692 C 31.104754,27.259563 30.498188,27.078397 30.170047,26.9821 l -0.596622,-0.175085 v -3.531791 c 0,-1.942485 0.02983,-3.531757 0.06629,-3.531716 0.03646,4.2e-5 0.814933,0.200104 1.72994,0.444584 5.47805,1.463672 8.10405,2.629374 10.034059,4.454199 0.718232,0.679089 1.581747,1.781512 1.923135,2.455209 l 0.214911,0.424107 -2.807818,1.5e-4 c -1.544301,8e-5 -4.080612,0.02046 -5.636247,0.04529 l -2.828427,0.04515 z"
       id="path3720"
       inkscape:connector-curvature="0" />
    <path
       style="fill:#f9f9f9;stroke-width:0.08838835"
       d="m 23.191066,24.375083 c -1.901729,-1.083747 -3.039285,-2.263641 -3.951222,-4.098279 -1.740866,-3.502281 -1.622508,-9.07963 0.27326,-12.8767482 0.579347,-1.1603995 1.296438,-2.156362 2.237953,-3.1082751 0.995706,-1.0067029 1.702565,-1.5354676 2.753998,-2.0601223 1.513632,-0.7552878 2.928512,-1.0697172 4.815538,-1.0701592 3.053253,-7.152e-4 5.352424,0.9646161 8.149307,3.4215729 l 0.927073,0.8143991 1.160277,-1.9413505 1.160277,-1.9413505 h 0.872364 0.872364 l 0.04951,0.7292038 c 0.02723,0.4010622 0.07346,4.0220957 0.102723,8.046741 l 0.05321,7.317538 -0.809362,-0.0255 -0.809362,-0.0255 -0.380781,-1.502602 C 39.53133,11.568461 38.049812,8.5290438 35.970148,6.4163449 33.947368,4.3614346 31.741382,3.3751232 29.161356,3.3720866 c -2.344612,-0.00276 -4.056344,0.7145235 -5.572607,2.3351407 -1.038032,1.1094736 -1.681799,2.3414342 -2.033002,3.890506 -0.227132,1.0018237 -0.200679,3.0708107 0.05204,4.0704347 0.509939,2.017032 1.69827,3.5423 3.483821,4.471616 0.523308,0.272362 0.678104,0.394168 0.643978,0.506728 -0.02471,0.0815 -0.386385,1.36131 -0.803727,2.844025 -0.897124,3.18727 -0.922589,3.270368 -1.002188,3.270368 -0.03387,0 -0.36624,-0.17362 -0.738607,-0.385822 z"
       id="path3722"
       inkscape:connector-curvature="0" />
    <path
       style="fill:#f9f9f9;stroke-width:0.015625"
       d="m 20.959583,22.710441 c -0.903563,-0.906892 -1.627014,-2.06503 -2.125663,-3.402872 -0.723298,-1.940563 -0.981005,-4.439045 -0.712262,-6.905413 0.117187,-1.075481 0.359643,-2.23946 0.65662,-3.1522941 l 0.06229,-0.1914555 h 1.422872 1.422872 l -0.0098,0.035156 c -0.124154,0.4445503 -0.19512,0.8195972 -0.238743,1.2617186 -0.04088,0.414296 -0.04117,1.772252 -4.78e-4,2.21875 0.05376,0.589943 0.115803,0.945552 0.239507,1.372869 0.432091,1.492597 1.259175,2.706863 2.451201,3.598678 0.300632,0.224919 0.534448,0.370413 1,0.622261 0.443314,0.239819 0.601562,0.355865 0.601562,0.441134 0,0.0179 -0.108803,0.416384 -0.241785,0.88552 -0.132983,0.469137 -0.406304,1.43657 -0.60738,2.149851 l -0.365594,1.296875 -1.658671,0.004 -1.658671,0.004 z"
       id="path3724"
       inkscape:connector-curvature="0" />
    <path
       style="fill:#f9f9f9;stroke-width:0.015625"
       d="m 20.899802,22.734188 c -1.370405,-1.40578 -2.272436,-3.239696 -2.676413,-5.441407 -0.08827,-0.481084 -0.158933,-1.041669 -0.205818,-1.632812 -0.03375,-0.42551 -0.04751,-1.696654 -0.02368,-2.1875 0.07475,-1.539778 0.287818,-2.819646 0.685041,-4.1149426 0.07702,-0.2511445 0.110234,-0.3228239 0.137133,-0.2959245 0.0039,0.00388 -0.01421,0.069789 -0.0402,0.1464615 -0.07531,0.2221554 -0.21063,0.7055241 -0.297116,1.0612806 -0.531394,2.185868 -0.621344,4.65321 -0.248049,6.804026 0.234333,1.350154 0.61807,2.510683 1.162791,3.516609 0.463201,0.855383 0.90872,1.470228 1.513876,2.089242 0.186312,0.19058 0.25468,0.26981 0.232819,0.26981 -0.01919,0 -0.110497,-0.0816 -0.240388,-0.214843 z"
       id="path3726"
       inkscape:connector-curvature="0" />
    <path
       style="fill:#f9f9f9;stroke-width:0.015625"
       d=""
       id="path3728"
       inkscape:connector-curvature="0" />
    <path
       style="fill:#f9f9f9;stroke-width:0.015625"
       d=""
       id="path3730"
       inkscape:connector-curvature="0" />
    <path
       style="fill:#f9f9f9;stroke-width:0.00390625"
       d="m 18.313133,17.730652 c 0,-6.56e-4 -0.0052,-0.02513 -0.01163,-0.0544 -0.121814,-0.557329 -0.218263,-1.237678 -0.277309,-1.956131 -0.02105,-0.256096 -0.03354,-0.637807 -0.03792,-1.15918 -0.0025,-0.301135 -0.0025,-0.301757 0.0054,-0.301757 0.0078,0 0.0079,0.0027 0.01054,0.202148 0.01142,0.874923 0.06675,1.584511 0.182389,2.338867 0.04153,0.270903 0.11272,0.655972 0.163036,0.881836 l 0.0111,0.0498 h -0.02278 c -0.01253,0 -0.02278,-5.37e-4 -0.02278,-0.0012 z"
       id="path3732"
       inkscape:connector-curvature="0" />
    <path
       style="fill:#f9f9f9;stroke-width:0.00390625"
       d=""
       id="path3734"
       inkscape:connector-curvature="0" />
    <path
       style="fill:#f9f9f9;stroke-width:0.00390625"
       d="m 18.311626,17.722464 c -0.0071,-0.02831 -0.04393,-0.206732 -0.06255,-0.30312 -0.09808,-0.507537 -0.174225,-1.082875 -0.224879,-1.699219 -0.02111,-0.256844 -0.03337,-0.631633 -0.03787,-1.157226 l -0.0026,-0.303711 h 0.0085 c 0.0083,0 0.0085,8.65e-4 0.0085,0.06934 7e-5,0.107819 0.0072,0.475073 0.01166,0.598632 0.03076,0.856473 0.114849,1.622044 0.264069,2.404297 0.02572,0.134824 0.07897,0.39211 0.08226,0.397461 9.91e-4,0.0016 -0.0087,0.0029 -0.02144,0.0029 -0.02128,0 -0.02344,-7.92e-4 -0.0256,-0.0094 z"
       id="path3736"
       inkscape:connector-curvature="0" />
    <path
       style="fill:#f9f9f9;stroke-width:0.00390625"
       d="m 18.366326,17.725008 c -0.0011,-0.0038 -0.01166,-0.05254 -0.02345,-0.108398 -0.170932,-0.810224 -0.275255,-1.6462 -0.314904,-2.523438 -0.0098,-0.216491 -0.01214,-0.308777 -0.01439,-0.563477 l -0.0024,-0.270507 h 1.884535 1.884536 l 0.01103,0.03418 c 0.05197,0.161033 0.165352,0.448429 0.257742,0.653321 l 0.04139,0.0918 v 1.346679 1.34668 H 20.22935 c -1.769069,0 -1.861165,-3.38e-4 -1.863087,-0.0068 z"
       id="path3738"
       inkscape:connector-curvature="0" />
    <path
       style="fill:#ac9393;stroke-width:0.00390625"
       d="m 24.367297,17.705814 c -0.154125,-0.106983 -0.249031,-0.176181 -0.357421,-0.260603 -0.903673,-0.70384 -1.588916,-1.608633 -2.043131,-2.697742 -0.05579,-0.133775 -0.168736,-0.434137 -0.179751,-0.478021 -0.0024,-0.0096 -0.0017,-0.01026 0.01054,-0.01023 l 0.01312,2.5e-5 0.02089,0.0615 c 0.22563,0.664367 0.504288,1.214769 0.881888,1.741898 0.441122,0.615806 1.008794,1.168685 1.661679,1.618375 0.03545,0.02442 0.06612,0.04584 0.06816,0.04762 0.002,0.0018 -0.0059,0.0032 -0.01758,0.0031 -0.01978,-1.26e-4 -0.02391,-0.002 -0.0584,-0.02589 z"
       id="path3740"
       inkscape:connector-curvature="0" />
    <path
       style="fill:#ffffff;stroke-width:0.0078125"
       d="m 39.148476,22.990431 c -0.0085,-0.0059 -0.09627,-0.05459 -0.195097,-0.108233 -1.593497,-0.864939 -3.674502,-1.623735 -6.859375,-2.50113 -0.9321,-0.256783 -2.392629,-0.637749 -2.444971,-0.637749 -0.01556,0 -0.0183,0.005 -0.0225,0.04102 -0.01703,0.14625 -0.03332,0.66451 -0.04229,1.345703 l -0.0059,0.445313 -0.0048,-0.246094 c -0.0026,-0.135352 -0.0053,-0.565513 -0.0059,-0.955914 -9.68e-4,-0.655232 -6.2e-5,-0.709442 0.01178,-0.704899 0.03157,0.01211 0.929023,0.253583 1.221549,0.328669 3.03701,0.779552 5.237857,1.489693 6.970593,2.249182 0.396509,0.173797 0.948334,0.441929 1.259876,0.612174 l 0.140625,0.07685 0.0024,0.03291 c 0.0026,0.03526 -0.0018,0.03902 -0.02605,0.02221 z"
       id="path3742"
       inkscape:connector-curvature="0" />
    <path
       style="fill:#ffffff;stroke-width:0.0078125"
       d="m 32.914316,27.605585 c 2.339482,-0.04014 4.960706,-0.07222 5.908203,-0.07231 l 0.353516,-3.2e-5 v 0.03029 0.03029 l -1.470703,0.0048 c -0.808887,0.0026 -2.242383,0.0057 -3.185547,0.0068 -0.943164,0.0011 -1.665625,0.0012 -1.605469,1.86e-4 z"
       id="path3744"
       inkscape:connector-curvature="0" />
    <path
       style="fill:#ffffff;stroke-width:0.0078125"
       d="M 32.219004,27.614308 C 31.640797,27.439422 30.974473,27.24837 30.176035,27.02854 29.950449,26.96643 29.72457,26.902832 29.674082,26.887211 c -0.08959,-0.02772 -0.0918,-0.02895 -0.0918,-0.05109 0,-0.01798 0.0028,-0.02182 0.01367,-0.01853 0.0075,0.0023 0.163086,0.04796 0.345703,0.101496 0.606813,0.177906 1.161886,0.343719 1.890625,0.564773 l 0.425781,0.129156 0.273438,2.37e-4 0.273437,2.36e-4 -0.179864,0.0058 c -0.18263,0.0059 -0.245917,0.01184 -0.245917,0.02327 0,0.0035 0.04307,0.02039 0.0957,0.03756 0.05264,0.01717 0.08867,0.03119 0.08008,0.03116 -0.0086,-3.1e-5 -0.159765,-0.04365 -0.335937,-0.09693 z"
       id="path3746"
       inkscape:connector-curvature="0" />
    <path
       style="fill:#ffffff;stroke-width:0.0078125"
       d=""
       id="path3748"
       inkscape:connector-curvature="0" />
    <path
       style="fill:#ffffff;stroke-width:0.0078125"
       d=""
       id="path3750"
       inkscape:connector-curvature="0" />
    <path
       style="fill:#ffffff;stroke-width:0.0078125"
       d=""
       id="path3752"
       inkscape:connector-curvature="0" />
    <path
       style="fill:#ffffff;stroke-width:0.0078125"
       d="m 43.642628,27.627971 -0.01453,-0.03223 H 41.40272 39.177344 v -0.03002 -0.03002 l 0.134765,-0.0051 c 0.07412,-0.0028 1.057115,-0.0051 2.18443,-0.0051 1.948838,-2.4e-5 2.049407,-6.97e-4 2.044437,-0.0137 -0.01693,-0.04429 -0.300806,-0.585198 -0.351579,-0.669922 -0.316366,-0.527914 -0.858265,-1.232871 -1.373748,-1.78711 l -0.08538,-0.0918 h 0.03883 c 0.0386,0 0.03921,3.96e-4 0.104473,0.06836 0.514047,0.535308 1.025526,1.221849 1.407206,1.888841 0.158603,0.277161 0.38497,0.714302 0.379065,0.732017 -0.0015,0.0044 -0.0092,-0.0065 -0.01722,-0.02418 z"
       id="path3754"
       inkscape:connector-curvature="0" />
    <path
       style="fill:#ffffff;stroke-width:0.0078125"
       d=""
       id="path3756"
       inkscape:connector-curvature="0" />
    <path
       style="fill:#ffffff;stroke-width:0.0078125"
       d="m 41.540625,24.772757 c -0.641794,-0.634788 -1.38333,-1.197487 -2.215597,-1.681258 l -0.147684,-0.08584 v -0.03288 -0.03288 l 0.05078,0.02811 c 0.222371,0.123091 0.642753,0.389745 0.914063,0.579803 0.560901,0.392923 1.025663,0.778882 1.484374,1.232691 l 0.183594,0.181632 -0.03906,-3.2e-5 -0.03906,-3.1e-5 -0.191406,-0.189317 z"
       id="path3760"
       inkscape:connector-curvature="0" />
  </g>
</svg>
